# xmcd
#
# Track frame offsets:
#	150
#	11804
#	28201
#	40077
#	55226
#	76045
#	92297
#	106512
#	121048
#	130326
#	147581
#	169193
#	183376
#
# Disc length: 2670 seconds
#
# Revision: 1
# Processed by: cddbd v1.5.2PL0 Copyright (c) Steve Scherf et al.
# Submitted via: audiograbber 1.83.01
#
DISCID=9e0a6c0d
DTITLE=The Sherrahs - Built On Stone
DYEAR=2015
DGENRE=Country
TTITLE0=I saw the light
TTITLE1=Everybody's reaching out for someone
TTITLE2=Tumbling tumbleweeds
TTITLE3=Raindrops on the window
TTITLE4=It's not easy being me
TTITLE5=Just call me tonight
TTITLE6=It's only make believe
TTITLE7=I'm an old cowhand
TTITLE8=Sentimental journey
TTITLE9=Farside banks of Jordan
TTITLE10=Shadows
TTITLE11=Their love was built on stone
TTITLE12=Love can build a bridge
EXTD=
EXTT0=
EXTT1=
EXTT2=
EXTT3=
EXTT4=
EXTT5=
EXTT6=
EXTT7=
EXTT8=
EXTT9=
EXTT10=
EXTT11=
EXTT12=
PLAYORDER=
